<?xml version="1.0" encoding="utf-8"?>
<!-- Generator: Adobe Illustrator 16.0.0, SVG Export Plug-In . SVG Version: 6.00 Build 0)  -->
<!DOCTYPE svg PUBLIC "-//W3C//DTD SVG 1.1//EN" "http://www.w3.org/Graphics/SVG/1.1/DTD/svg11.dtd">
<svg version="1.1" id="Layer_1" xmlns="http://www.w3.org/2000/svg" xmlns:xlink="http://www.w3.org/1999/xlink" x="0px" y="0px"
	 width="160.125px" height="39.744px" viewBox="0 0 160.125 39.744" enable-background="new 0 0 160.125 39.744"
	 xml:space="preserve">
<g>
	<path fill="#323232" stroke="#323232" stroke-width="0.25" stroke-miterlimit="10" d="M60.549,33.182h-8.353
		c-0.823,0-1.476-0.651-1.476-1.455V8.278c0-0.823,0.633-1.455,1.456-1.455h8.294c3.775,0,6.975,3.141,6.975,6.856
		c0,2.203-1.074,4.272-2.664,5.671c2.184,1.322,3.602,3.621,3.602,6.304C68.383,29.868,64.936,33.182,60.549,33.182z M60.471,9.733
		h-6.838v8.449h6.8c2.031,0,4.081-2.28,4.081-4.503C64.514,11.573,62.636,9.733,60.471,9.733z M60.433,21.095h-6.781v9.176h6.897
		c2.759,0,4.924-2.031,4.924-4.616C65.473,22.799,62.904,21.095,60.433,21.095z"/>
	<path fill="#323232" stroke="#323232" stroke-width="0.25" stroke-miterlimit="10" d="M77.46,31.727
		c0,0.804-0.651,1.474-1.454,1.474c-0.806,0-1.456-0.67-1.456-1.474V8.278c0-0.805,0.65-1.455,1.456-1.455
		c0.803,0,1.454,0.65,1.454,1.455V31.727z"/>
	<path fill="#323232" stroke="#323232" stroke-width="0.25" stroke-miterlimit="10" d="M95.984,33.45
		c-7.146,0-12.529-5.843-12.529-13.621c0-7.699,5.269-13.294,12.529-13.294c7.26,0,12.529,5.595,12.529,13.294
		C108.514,27.607,103.13,33.45,95.984,33.45z M95.984,9.447c-5.651,0-9.615,4.271-9.615,10.382c0,6.207,4.041,10.709,9.615,10.709
		c5.573,0,9.598-4.502,9.598-10.709C105.582,13.719,101.636,9.447,95.984,9.447z"/>
	<path fill="#323232" stroke="#323232" stroke-width="0.25" stroke-miterlimit="10" d="M136.996,31.727
		c0,0.804-0.65,1.455-1.456,1.455c-0.805,0-1.456-0.651-1.456-1.455V13.105l-7.126,10.651c-0.575,0.862-1.839,0.862-2.415,0
		l-7.124-10.651v18.621c0,0.804-0.652,1.455-1.456,1.455c-0.806,0-1.456-0.651-1.456-1.455l-0.02-23.448
		c0-0.632,0.421-1.207,1.034-1.398c0.633-0.191,1.283,0.058,1.647,0.594l8.583,12.854l8.581-12.854
		c0.364-0.536,1.015-0.785,1.648-0.594c0.611,0.191,1.033,0.767,1.033,1.398L136.996,31.727z"/>
	<path fill="#323232" stroke="#323232" stroke-width="0.25" stroke-miterlimit="10" d="M158.524,9.754h-11.072v8.868h9.405
		c0.805,0,1.476,0.651,1.476,1.457c0,0.805-0.671,1.456-1.476,1.456h-9.405v8.735h10.785c0.805,0,1.455,0.651,1.455,1.456
		c0,0.804-0.65,1.455-1.455,1.455h-12.241c-0.804,0-1.456-0.651-1.456-1.455V8.278c0-0.805,0.652-1.455,1.456-1.455h12.528
		c0.805,0,1.476,0.65,1.476,1.455S159.329,9.754,158.524,9.754z"/>
</g>
<path fill="#247841" d="M32.237,17.326c-1.097-1.127-2.471-2.021-4.085-2.657c-1.647-0.648-3.563-0.978-5.69-0.978H5.344
	c-0.967,0-1.754-0.785-1.754-1.754L3.587,5.534c0-1.043,0.844-1.89,1.888-1.89h16.987c2.977,0,5.375,0.871,7.114,2.588
	c1.749,1.724,2.633,4.038,2.633,6.879c0,0.727-0.063,1.417-0.18,2.076c-0.007,0.045,0.01,0.086,0.043,0.113
	c0.416,0.326,0.809,0.673,1.17,1.048c0.526,0.539,0.996,1.13,1.419,1.763c0.053,0.078,0.17,0.066,0.202-0.021
	c0.543-1.558,0.819-3.308,0.819-5.204c0-2.033-0.303-3.872-0.901-5.468c-0.582-1.55-1.429-2.882-2.516-3.953
	c-1.092-1.077-2.468-1.93-4.086-2.534C26.53,0.314,24.604,0,22.462,0H2.597v0.006H1.888C0.844,0.006,0,0.85,0,1.894l0.003,10.044
	v3.284c0,1.044,0.848,1.89,1.891,1.89h20.568c2.991,0,5.39,0.896,7.131,2.661c1.736,1.76,2.616,4.068,2.616,6.86
	c0,2.838-0.884,5.153-2.633,6.879c-1.739,1.717-4.138,2.587-7.114,2.587H4.991c-0.774,0-1.402-0.629-1.402-1.402H3.59v-6.757
	c0-1.041,0.846-1.888,1.891-1.888h16.981c2.133,0,4.048-0.33,5.69-0.978c0.793-0.313,1.528-0.688,2.198-1.122
	c0.047-0.027,0.067-0.085,0.052-0.137c-0.344-1.118-0.906-2.099-1.691-2.93c-0.044-0.047-0.113-0.053-0.166-0.017
	c-1.614,1.171-3.653,1.764-6.083,1.764H1.894c-1.043,0-1.891,0.846-1.891,1.89v3.282l0.003,10.047c0,1.043,0.846,1.889,1.891,1.889
	h0.35v0.004h20.216c2.141,0,4.066-0.313,5.718-0.93c1.617-0.608,2.991-1.459,4.086-2.535c1.088-1.073,1.934-2.404,2.516-3.957
	c0.599-1.596,0.901-3.433,0.901-5.465c0-1.994-0.305-3.825-0.905-5.441C34.19,19.836,33.338,18.459,32.237,17.326"/>
</svg>
